<?xml version="1.0" encoding="utf-8"?>
<!-- Generator: Adobe Illustrator 28.1.0, SVG Export Plug-In . SVG Version: 6.00 Build 0)  -->
<svg version="1.1" id="Layer_1" xmlns="http://www.w3.org/2000/svg" xmlns:xlink="http://www.w3.org/1999/xlink" x="0px" y="0px"
	 viewBox="0 0 500 500" style="enable-background:new 0 0 500 500;" xml:space="preserve">
<style type="text/css">
	.st0{fill:url(#SVGID_00000052073329580916509890000007555725869404571838_);}
	.st1{fill:url(#SVGID_00000037652385648949674890000016759557851354599051_);}
	.st2{fill:none;}
	.st3{fill:url(#SVGID_00000139295593638125471050000016730903306722992775_);}
	.st4{fill:url(#SVGID_00000137820014791001929090000013877314749033977272_);}
</style>
<linearGradient id="SVGID_00000120545825926699296600000017592721710142022540_" gradientUnits="userSpaceOnUse" x1="95.0001" y1="123.508" x2="424.2666" y2="420.1593">
	<stop  offset="0.1566" style="stop-color:#98D8E3"/>
	<stop  offset="0.4147" style="stop-color:#73BBD5"/>
	<stop  offset="0.8073" style="stop-color:#369CC5"/>
	<stop  offset="1" style="stop-color:#0091BF"/>
</linearGradient>
<path style="fill:url(#SVGID_00000120545825926699296600000017592721710142022540_);" d="M468.73,298.02
	c-3.17,14.01-8.63,26.52-16.56,37.53c-7.84,11.01-17.89,19.47-29.96,25.37c-12.33,5.99-25.29,8.72-38.85,8.11
	c-13.48-0.62-26.78-3.96-39.65-10.22c-12.95-6.17-25.02-14.89-36.21-26.08c-11.19-11.19-20.53-24.49-28.02-39.82
	c-11.45-23.53-13.83-39.12-7.14-46.96c2.03-2.64,5.02-4.32,8.72-5.2c0,0,0,0,0.09,0c3.88-0.44,19.3-0.7,27.93,19.82h0.09
	c1.06,3.35,3.44,7.67,7.05,12.95c5.46,7.84,15.15,18.5,29.25,31.98c14.19,13.74,27.31,23.35,39.56,28.99
	c12.25,5.55,23.17,8.19,32.86,7.75c9.78-0.35,18.06-3.17,24.85-8.37c6.87-5.2,11.81-11.72,14.98-19.56
	c3.44-7.84,3.52-16.92,0.26-27.14c-3.26-10.22-8.28-20.7-15.07-31.45c-6.87-10.84-14.89-21.41-24.14-31.81
	c-9.16-10.48-18.06-19.74-26.52-27.75c-11.72-11.45-24.14-19.91-37.36-25.64c-9.34-3.96-17.97-6.61-26.08-7.93
	c-2.73-0.45-5.81-0.91-9.96-0.97c-7.36-0.11-14.46,1.14-23.52,4.23c-13.2,4.51-14.15,7.33-22.87,10.42
	c-22.62,8.02-45.71-0.49-47.46-1.16c-9.18-3.52-13.75-7.76-26.5-11.2c-4.18-1.13-10.05-2.49-17.36-2.29
	c-3.17,0.09-6.52,0.44-9.96,0.97c-8.11,1.32-16.74,3.96-26.08,7.93c-13.22,5.73-25.64,14.19-37.36,25.64
	c-8.46,8.02-17.36,17.27-26.52,27.75c-9.25,10.4-17.27,20.97-24.14,31.81c-6.78,10.75-11.81,21.23-15.07,31.45
	c-3.26,10.22-3.17,19.3,0.26,27.14c3.17,7.84,8.11,14.36,14.98,19.56c6.78,5.2,15.07,8.02,24.85,8.37
	c9.69,0.44,20.62-2.2,32.86-7.75c12.25-5.64,25.37-15.24,39.56-28.99c14.1-13.48,23.79-24.14,29.25-31.98
	c4.41-6.43,7.05-11.37,7.67-14.89c0,0,0-0.09,0.09-0.35c0.26-0.62,0.71-1.94,1.41-3.52c0.09-0.18,0.18-0.35,0.26-0.53
	c0.35-0.62,0.88-1.32,1.41-1.94c4.67-5.81,14.54-14.89,28.02-10.31c2.03,0.97,3.7,2.2,5.02,3.96c6.7,7.84,4.32,23.44-7.14,46.96
	c-7.49,15.33-16.83,28.63-28.02,39.82c-11.19,11.19-23.26,19.91-36.21,26.08c-12.86,6.26-26.17,9.6-39.65,10.22
	c-13.57,0.62-26.52-2.11-38.85-8.11c-12.07-5.9-22.11-14.36-29.96-25.37c-7.93-11.01-13.39-23.52-16.56-37.53
	c-3.08-13.92-3.7-28.81-1.76-44.58c1.94-15.77,6.61-31.28,14.01-46.61c7.49-15.33,16.83-28.63,28.02-39.74
	c11.1-11.1,23.17-19.74,36.04-25.9c12.95-6.26,26.17-9.6,39.74-10.22c8.28-0.35,16.21,0.44,23.88,2.47
	c4.93,1.32,9.87,3.17,14.63,5.46c8.63,4.23,15.51,8.81,20.62,13.83c0,0,0.09,0.09,0.18,0.18c2.64,2.38,35.42,30.57,86.96-0.18
	c5.11-5.02,11.98-9.6,20.62-13.83c4.76-2.29,9.69-4.14,14.63-5.46c7.67-2.03,15.6-2.82,23.88-2.47
	c13.57,0.62,26.78,3.96,39.74,10.22c12.86,6.17,24.93,14.8,36.04,25.9c11.19,11.1,20.53,24.41,28.02,39.74
	c7.4,15.33,12.07,30.84,14.01,46.61C472.43,269.21,471.81,284.1,468.73,298.02z"/>
</svg>
